<svg xmlns="http://www.w3.org/2000/svg" viewBox="0 0 800 500">
  <rect width="800" height="500" fill="#0a0a0f"/>
  <rect x="40" y="40" width="720" height="420" rx="14" fill="#161628" stroke="#2a2a44"/>
  <rect x="40" y="40" width="720" height="36" rx="14" fill="#1f1f33"/>
  <circle cx="62" cy="58" r="6" fill="#ff5f57"/>
  <circle cx="82" cy="58" r="6" fill="#febc2e"/>
  <circle cx="102" cy="58" r="6" fill="#28c840"/>
  <text x="400" y="62" text-anchor="middle" font-family="monospace" font-size="12" fill="#8b8b9a">exports.pq — Power Query</text>
  <g font-family="monospace" font-size="13">
    <text x="60" y="110" fill="#8b8b9a">1</text>
    <text x="90" y="110" fill="#ec4899">let</text>
    <text x="60" y="140" fill="#8b8b9a">2</text>
    <text x="120" y="140" fill="#06b6d4">Source</text>
    <text x="190" y="140" fill="#e5e5ef">= Csv.Document(file),</text>
    <text x="60" y="170" fill="#8b8b9a">3</text>
    <text x="120" y="170" fill="#06b6d4">Cleaned</text>
    <text x="195" y="170" fill="#e5e5ef">= Table.RemoveNulls(Source),</text>
    <text x="60" y="200" fill="#8b8b9a">4</text>
    <text x="120" y="200" fill="#06b6d4">Typed</text>
    <text x="180" y="200" fill="#e5e5ef">= Table.TransformColumnTypes(</text>
    <text x="60" y="230" fill="#8b8b9a">5</text>
    <text x="150" y="230" fill="#e5e5ef">Cleaned, {{</text>
    <text x="250" y="230" fill="#a5d6a7">"Sales"</text>
    <text x="320" y="230" fill="#e5e5ef">, type number}})</text>
    <text x="60" y="260" fill="#8b8b9a">6</text>
    <text x="90" y="260" fill="#ec4899">in</text>
    <text x="60" y="290" fill="#8b8b9a">7</text>
    <text x="120" y="290" fill="#e5e5ef">Typed</text>
    <text x="60" y="410" fill="#8b8b9a">// 1,000+ rows cleaned · 3 dashboards</text>
  </g>
</svg>
